# xmcd
#
# Track frame offsets:
#	150
#	12063
#	24581
#	36495
#	48494
#	61314
#	75062
#	83905
#	94662
#	120348
#	131762
#	144920
#	157853
#	168926
#	181520
#	191635
#
# Disc length: 2732 seconds
#
# Revision: 0
# Processed by: cddbd v1.4PL0 Copyright (c) Steve Scherf et al.
# Submitted via: dBpowerAMP V4.0
#
DISCID=b60aaa10
DTITLE=The Platters - The Platters
DYEAR=1900
DGENRE=
TTITLE0=Only you
TTITLE1=Twilight time
TTITLE2=The great pretender
TTITLE3=Smoke gets in your eyes
TTITLE4=Remember when
TTITLE5=Alone in the night
TTITLE6=Sentimental journey
TTITLE7=Red sails in the sunset
TTITLE8=Unchained melody
TTITLE9=My dream
TTITLE10=Enchanted
TTITLE11=So many tears
TTITLE12=(You've got) The magic touch
TTITLE13=My prayer
TTITLE14=If you need me
TTITLE15=I'm sorry
EXTD=
EXTT0=
EXTT1=
EXTT2=
EXTT3=
EXTT4=
EXTT5=
EXTT6=
EXTT7=
EXTT8=
EXTT9=
EXTT10=
EXTT11=
EXTT12=
EXTT13=
EXTT14=
EXTT15=
PLAYORDER=
